<svg width="90" height="18" fill="none" xmlns="http://www.w3.org/2000/svg"><path d="M.40625 17V.0898438H11.6094V3.00781H3.94531V7.0625h7.23049v2.76562H3.94531V14.082h7.66409V17H.40625Zm18.11715.2578c-3.164 0-5.1093-2.4609-5.1093-6.539v-.0118c0-4.08981 1.9453-6.52731 5.1093-6.52731 1.7813 0 3.1875.91406 3.8672 2.4375h.0703V.0898438h3.4219V17h-3.4219v-2.1445h-.0703c-.6679 1.4883-2.0508 2.4023-3.8672 2.4023Zm1.1485-2.8359c1.664 0 2.8008-1.4297 2.8008-3.7031v-.0118c0-2.26169-1.1485-3.69138-2.8008-3.69138-1.6992 0-2.7774 1.39454-2.7774 3.69138v.0118c0 2.2851 1.0664 3.7031 2.7774 3.7031Zm12.7734 2.8359c-2.7656 0-4.3359-1.7695-4.3359-4.7109V4.4375h3.4218v7.3945c0 1.6407.7735 2.5899 2.3086 2.5899 1.5352 0 2.5079-1.125 2.5079-2.7657V4.4375h3.4218V17h-3.4218v-2.0742h-.0704c-.6445 1.4414-1.9335 2.332-3.832 2.332Zm13.2891-.0586c-2.5196 0-4.2188-1.582-4.2188-3.7969v-.0234c0-2.2851 1.7696-3.62109 4.8867-3.82031l3.1055-.1875v-.77343c0-1.11328-.7266-1.80469-2.0625-1.80469-1.2773 0-2.0508.59765-2.2148 1.40625l-.0235.10547h-3.1289l.0117-.14063c.1875-2.32031 2.1797-3.98437 5.4961-3.98437 3.2461 0 5.3438 1.67578 5.3438 4.20703V17h-3.4219v-1.875h-.0703c-.7148 1.2891-2.0508 2.0742-3.7031 2.0742Zm-.8321-3.9726c0 .9257.7618 1.4765 1.9454 1.4765 1.5351 0 2.6601-.9843 2.6601-2.2969v-.9023l-2.5898.1641c-1.3242.082-2.0157.6445-2.0157 1.5351v.0235ZM55.1445 17V4.4375h3.4219v2.19141h.0703c.375-1.54688 1.3945-2.44922 2.8594-2.44922.375 0 .7266.05859.9844.1289v3.01172c-.2813-.11719-.75-.1875-1.2422-.1875-1.6875 0-2.6719 1.00781-2.6719 2.83594V17h-3.4219Zm12.9727.2578c-3.1641 0-5.1094-2.4609-5.1094-6.539v-.0118c0-4.08981 1.9453-6.52731 5.1094-6.52731 1.7812 0 3.1875.91406 3.8672 2.4375h.0703V.0898438h3.4219V17h-3.4219v-2.1445h-.0703c-.668 1.4883-2.0508 2.4023-3.8672 2.4023Zm1.1484-2.8359c1.6641 0 2.8008-1.4297 2.8008-3.7031v-.0118c0-2.26169-1.1484-3.69138-2.8008-3.69138-1.6992 0-2.7773 1.39454-2.7773 3.69138v.0118c0 2.2851 1.0664 3.7031 2.7773 3.7031Zm14.2617 2.8359c-3.8203 0-6.2226-2.4492-6.2226-6.539v-.0235c0-4.04296 2.4609-6.51561 6.2109-6.51561 3.7617 0 6.2344 2.44922 6.2344 6.51561v.0235c0 4.1015-2.4258 6.539-6.2227 6.539Zm.0118-2.6836c1.664 0 2.7304-1.4062 2.7304-3.8554v-.0235c0-2.42577-1.0898-3.83202-2.7539-3.83202-1.6523 0-2.7304 1.40625-2.7304 3.83202v.0235c0 2.4609 1.0664 3.8554 2.7539 3.8554Z" fill="#111"/></svg>