<svg width="16" height="16" fill="none" xmlns="http://www.w3.org/2000/svg"><g clip-path="url(#a)"><path d="M.0032107 16 1.08481 12.0256C.372121 10.8039-.0023125 9.41439.00001075 7.99999.00001075 3.5816 3.58161 0 8.00001 0 12.4184 0 16 3.5816 16 7.99999 16 12.4184 12.4184 16 8.00001 16c-1.41378.0023-2.80268-.3719-4.024-1.084L.0032107 16ZM5.11281 4.2464c-.10331.00641-.20426.03362-.2968.08-.08679.04914-.16601.11058-.2352.1824-.096.0904-.1504.1688-.2088.2448-.29567.38479-.45471.85713-.452 1.3424.0016.392.104.7736.264 1.1304.3272.72159.8656 1.48559 1.5768 2.19359.1712.1704.3384.3416.5184.5008.88271.77721 1.9346 1.33761 3.07199 1.63681l.4552.0696c.148.008.296-.0032.4448-.0104.233-.012.4605-.0751.6664-.1848.1328-.0704.1952-.1056.3064-.176 0 0 .0344-.0224.1-.072.108-.08.1744-.1368.264-.2304.0664-.0688.124-.1496.168-.2416.0624-.1304.1248-.3792.1504-.5864.0192-.15841.0136-.24481.0112-.29841-.0032-.0856-.0744-.1744-.152-.212l-.4656-.2088s-.696-.3032-1.1208-.4968c-.0448-.01952-.0928-.03064-.1416-.0328-.05473-.00562-.11004.00054-.1622.01807-.05215.01752-.09996.046-.1402.08353v-.0016c-.004 0-.0576.0456-.636.7464-.03319.04461-.07892.07833-.13135.09685-.05243.01852-.10919.02101-.16305.00715-.05212-.01393-.10318-.03158-.1528-.0528-.0992-.0416-.1336-.0576-.20159-.0872l-.00401-.0016c-.45767-.19982-.88142-.46972-1.25599-.8-.1008-.088-.1944-.184-.2904-.2768-.31474-.30141-.58903-.64239-.816-1.01439l-.0472-.07601c-.03391-.05106-.06132-.10615-.0816-.164-.0304-.1176.0488-.21199.0488-.21199s.1944-.21281.2848-.328c.07527-.09575.1455-.19535.2104-.2984.0944-.152.124-.308.0744-.4288-.224-.5472-.456-1.092-.6944-1.6328-.0472-.1072-.1872-.184-.3144-.1992-.0432-.0048-.0864-.0096-.1296-.0128-.10744-.00534-.2151-.00347-.3224.004Z" fill="#111"/></g><defs><clipPath id="a"><path fill="#fff" d="M0 0h16v16H0z"/></clipPath></defs></svg>