<svg width="90" height="18" viewBox="0 0 90 18" fill="none" xmlns="http://www.w3.org/2000/svg">
<path d="M0.40625 17V0.0898438H11.6094V3.00781H3.94531V7.0625H11.1758V9.82812H3.94531V14.082H11.6094V17H0.40625ZM18.5234 17.2578C15.3594 17.2578 13.4141 14.7969 13.4141 10.7188V10.707C13.4141 6.61719 15.3594 4.17969 18.5234 4.17969C20.3047 4.17969 21.7109 5.09375 22.3906 6.61719H22.4609V0.0898438H25.8828V17H22.4609V14.8555H22.3906C21.7227 16.3438 20.3398 17.2578 18.5234 17.2578ZM19.6719 14.4219C21.3359 14.4219 22.4727 12.9922 22.4727 10.7188V10.707C22.4727 8.44531 21.3242 7.01562 19.6719 7.01562C17.9727 7.01562 16.8945 8.41016 16.8945 10.707V10.7188C16.8945 13.0039 17.9609 14.4219 19.6719 14.4219ZM32.4453 17.2578C29.6797 17.2578 28.1094 15.4883 28.1094 12.5469V4.4375H31.5312V11.832C31.5312 13.4727 32.3047 14.4219 33.8398 14.4219C35.375 14.4219 36.3477 13.2969 36.3477 11.6562V4.4375H39.7695V17H36.3477V14.9258H36.2773C35.6328 16.3672 34.3438 17.2578 32.4453 17.2578ZM45.7344 17.1992C43.2148 17.1992 41.5156 15.6172 41.5156 13.4023V13.3789C41.5156 11.0938 43.2852 9.75781 46.4023 9.55859L49.5078 9.37109V8.59766C49.5078 7.48438 48.7812 6.79297 47.4453 6.79297C46.168 6.79297 45.3945 7.39062 45.2305 8.19922L45.207 8.30469H42.0781L42.0898 8.16406C42.2773 5.84375 44.2695 4.17969 47.5859 4.17969C50.832 4.17969 52.9297 5.85547 52.9297 8.38672V17H49.5078V15.125H49.4375C48.7227 16.4141 47.3867 17.1992 45.7344 17.1992ZM44.9023 13.2266C44.9023 14.1523 45.6641 14.7031 46.8477 14.7031C48.3828 14.7031 49.5078 13.7188 49.5078 12.4062V11.5039L46.918 11.668C45.5938 11.75 44.9023 12.3125 44.9023 13.2031V13.2266ZM55.1445 17V4.4375H58.5664V6.62891H58.6367C59.0117 5.08203 60.0312 4.17969 61.4961 4.17969C61.8711 4.17969 62.2227 4.23828 62.4805 4.30859V7.32031C62.1992 7.20312 61.7305 7.13281 61.2383 7.13281C59.5508 7.13281 58.5664 8.14062 58.5664 9.96875V17H55.1445ZM68.1172 17.2578C64.9531 17.2578 63.0078 14.7969 63.0078 10.7188V10.707C63.0078 6.61719 64.9531 4.17969 68.1172 4.17969C69.8984 4.17969 71.3047 5.09375 71.9844 6.61719H72.0547V0.0898438H75.4766V17H72.0547V14.8555H71.9844C71.3164 16.3438 69.9336 17.2578 68.1172 17.2578ZM69.2656 14.4219C70.9297 14.4219 72.0664 12.9922 72.0664 10.7188V10.707C72.0664 8.44531 70.918 7.01562 69.2656 7.01562C67.5664 7.01562 66.4883 8.41016 66.4883 10.707V10.7188C66.4883 13.0039 67.5547 14.4219 69.2656 14.4219ZM83.5273 17.2578C79.707 17.2578 77.3047 14.8086 77.3047 10.7188V10.6953C77.3047 6.65234 79.7656 4.17969 83.5156 4.17969C87.2773 4.17969 89.75 6.62891 89.75 10.6953V10.7188C89.75 14.8203 87.3242 17.2578 83.5273 17.2578ZM83.5391 14.5742C85.2031 14.5742 86.2695 13.168 86.2695 10.7188V10.6953C86.2695 8.26953 85.1797 6.86328 83.5156 6.86328C81.8633 6.86328 80.7852 8.26953 80.7852 10.6953V10.7188C80.7852 13.1797 81.8516 14.5742 83.5391 14.5742Z" fill="#111111"/>
</svg>
