<svg width="840" height="520" fill="none" xmlns="http://www.w3.org/2000/svg"><path d="M24 40C24 20.1177 40.1178 4 60 4h720c19.882 0 36 16.1178 36 36v460c0 8.837-7.163 16-16 16H40c-8.8366 0-16-7.163-16-16V40Z" fill="#fff" stroke="#000" stroke-width="8"/><path d="M380 8h80v10c0 5.5228-4.477 10-10 10h-60c-5.523 0-10-4.4772-10-10V8ZM0 504c0-2.209 1.79086-4 4-4h832c2.209 0 4 1.791 4 4v4c0 6.627-5.373 12-12 12H12c-6.62744 0-12-5.373-12-12v-4Z" fill="#000"/><path d="M300 500h240v4c0 2.209-1.791 4-4 4H304c-2.209 0-4-1.791-4-4v-4Z" fill="#404040"/><rect x="60" y="48" width="32" height="32" rx="16" fill="#DEDEDE"/><rect x="60" y="120" width="200" height="32" rx="16" fill="#DEDEDE"/><rect x="60" y="172" width="720" height="200" rx="16" fill="#DEDEDE"/><path d="M60 412c0-8.837 7.1634-16 16-16h308c8.837 0 16 7.163 16 16v88H60v-88ZM440 412c0-8.837 7.163-16 16-16h308c8.837 0 16 7.163 16 16v88H440v-88Z" fill="#DEDEDE"/><rect x="748" y="48" width="32" height="32" rx="16" fill="#DEDEDE"/><rect x="692" y="48" width="32" height="32" rx="16" fill="#DEDEDE"/></svg>