<svg width="260" height="520" fill="none" xmlns="http://www.w3.org/2000/svg"><rect x="4" y="4" width="252" height="512" rx="36" fill="#fff" stroke="#000" stroke-width="8"/><rect x="20" y="408" width="65" height="80" rx="10" fill="#DEDEDE"/><rect x="97" y="408" width="65" height="80" rx="10" fill="#DEDEDE"/><rect x="174" y="408" width="66" height="80" rx="10" fill="#DEDEDE"/><rect x="20" y="100" width="120" height="20" rx="10" fill="#DEDEDE"/><rect x="20" y="376" width="120" height="20" rx="10" fill="#DEDEDE"/><rect x="20" y="132" width="220" height="80" rx="10" fill="#DEDEDE"/><rect x="20" y="224" width="104" height="120" rx="10" fill="#DEDEDE"/><rect x="136" y="224" width="104" height="120" rx="10" fill="#DEDEDE"/><rect x="20" y="48" width="20" height="20" rx="10" fill="#DEDEDE"/><rect x="220" y="48" width="20" height="20" rx="10" fill="#DEDEDE"/><rect x="188" y="48" width="20" height="20" rx="10" fill="#DEDEDE"/><rect x="90" y="16" width="80" height="20" rx="10" fill="#000"/></svg>