<svg width="127" height="27" viewBox="0 0 127 27" fill="none" xmlns="http://www.w3.org/2000/svg">
<path d="M0.0400391 2.448H16.104V6.928H4.68004V11.952H14.792V16.432H4.68004V21.52H16.552V26H0.0400391V2.448Z" fill="#2E2E2E"/>
<path d="M26.3125 26.384C25.0112 26.384 23.8485 26.0853 22.8245 25.488C21.8005 24.8693 20.9899 23.984 20.3925 22.832C19.8165 21.68 19.5285 20.3147 19.5285 18.736C19.5285 17.1573 19.8485 15.8133 20.4885 14.704C21.1285 13.5947 22.0032 12.752 23.1125 12.176C24.2219 11.6 25.4805 11.312 26.8885 11.312C27.7845 11.312 28.6379 11.4507 29.4485 11.728C30.2805 12.0053 30.9739 12.432 31.5285 13.008V14.416V0.751999H35.9765V26H31.4965V23.28L31.8485 24.24C31.1232 24.8373 30.3125 25.3493 29.4165 25.776C28.5205 26.1813 27.4859 26.384 26.3125 26.384ZM27.7845 22.608C28.3819 22.608 28.9045 22.5333 29.3525 22.384C29.8219 22.2133 30.2272 21.9787 30.5685 21.68C30.9312 21.36 31.2405 20.9653 31.4965 20.496V17.072C31.3259 16.6027 31.0592 16.208 30.6965 15.888C30.3552 15.5467 29.9285 15.2907 29.4165 15.12C28.9259 14.928 28.3819 14.832 27.7845 14.832C27.1232 14.832 26.5045 15.0027 25.9285 15.344C25.3739 15.664 24.9259 16.112 24.5845 16.688C24.2432 17.264 24.0725 17.9253 24.0725 18.672C24.0725 19.4187 24.2432 20.0907 24.5845 20.688C24.9259 21.2853 25.3739 21.7547 25.9285 22.096C26.5045 22.4373 27.1232 22.608 27.7845 22.608Z" fill="#2E2E2E"/>
<path d="M45.0973 26.672C43.8386 26.672 42.7826 26.288 41.9293 25.52C41.076 24.7307 40.628 23.7173 40.5853 22.48V12.016H45.0653V20.816C45.108 21.4347 45.268 21.936 45.5453 22.32C45.8226 22.6827 46.292 22.864 46.9533 22.864C47.6146 22.864 48.18 22.64 48.6493 22.192C49.14 21.744 49.5133 21.136 49.7693 20.368C50.0466 19.5787 50.1853 18.6933 50.1853 17.712V12.016H54.6653V26H50.6013L50.2493 23.44L50.3133 23.728C49.9933 24.304 49.588 24.816 49.0973 25.264C48.6066 25.712 48.02 26.0533 47.3373 26.288C46.676 26.544 45.9293 26.672 45.0973 26.672Z" fill="#2E2E2E"/>
<path d="M65.1608 26.384C63.8595 26.384 62.6755 26.128 61.6088 25.616C60.5635 25.0827 59.7315 24.272 59.1128 23.184C58.4941 22.096 58.1848 20.7093 58.1848 19.024C58.1848 17.4453 58.5048 16.08 59.1448 14.928C59.7848 13.776 60.6275 12.8907 61.6728 12.272C62.7181 11.632 63.8275 11.312 65.0008 11.312C66.3875 11.312 67.4328 11.5467 68.1368 12.016C68.8621 12.464 69.4595 12.9653 69.9288 13.52L69.7368 14.064L70.1528 12.016H74.3128V26H69.8328V22.96L70.1848 23.92C70.1421 23.92 70.0141 24.048 69.8008 24.304C69.5875 24.5387 69.2675 24.8267 68.8408 25.168C68.4355 25.488 67.9235 25.7653 67.3048 26C66.7075 26.256 65.9928 26.384 65.1608 26.384ZM66.4408 22.736C66.9741 22.736 67.4541 22.6613 67.8808 22.512C68.3075 22.3413 68.6808 22.1067 69.0008 21.808C69.3208 21.488 69.5981 21.0933 69.8328 20.624V17.2C69.6621 16.7307 69.4061 16.336 69.0648 16.016C68.7235 15.6747 68.3181 15.4187 67.8488 15.248C67.3795 15.056 66.8568 14.96 66.2808 14.96C65.6408 14.96 65.0435 15.1307 64.4888 15.472C63.9555 15.792 63.5288 16.24 63.2088 16.816C62.8888 17.392 62.7288 18.0533 62.7288 18.8C62.7288 19.5467 62.8995 20.2187 63.2408 20.816C63.5821 21.4133 64.0301 21.8827 64.5848 22.224C65.1608 22.5653 65.7795 22.736 66.4408 22.736Z" fill="#2E2E2E"/>
<path d="M82.961 12.016L83.377 15.856L83.281 15.28C83.6864 14.448 84.241 13.744 84.945 13.168C85.649 12.5707 86.3424 12.112 87.025 11.792C87.729 11.472 88.2624 11.312 88.625 11.312L88.401 15.792C87.3557 15.664 86.4597 15.8347 85.713 16.304C84.9664 16.7733 84.3904 17.392 83.985 18.16C83.5797 18.928 83.377 19.7173 83.377 20.528V26H78.929V12.016H82.961Z" fill="#2E2E2E"/>
<path d="M97.125 26.384C95.8237 26.384 94.661 26.0853 93.637 25.488C92.613 24.8693 91.8024 23.984 91.205 22.832C90.629 21.68 90.341 20.3147 90.341 18.736C90.341 17.1573 90.661 15.8133 91.301 14.704C91.941 13.5947 92.8157 12.752 93.925 12.176C95.0344 11.6 96.293 11.312 97.701 11.312C98.597 11.312 99.4504 11.4507 100.261 11.728C101.093 12.0053 101.786 12.432 102.341 13.008V14.416V0.751999H106.789V26H102.309V23.28L102.661 24.24C101.936 24.8373 101.125 25.3493 100.229 25.776C99.333 26.1813 98.2984 26.384 97.125 26.384ZM98.597 22.608C99.1944 22.608 99.717 22.5333 100.165 22.384C100.634 22.2133 101.04 21.9787 101.381 21.68C101.744 21.36 102.053 20.9653 102.309 20.496V17.072C102.138 16.6027 101.872 16.208 101.509 15.888C101.168 15.5467 100.741 15.2907 100.229 15.12C99.7384 14.928 99.1944 14.832 98.597 14.832C97.9357 14.832 97.317 15.0027 96.741 15.344C96.1864 15.664 95.7384 16.112 95.397 16.688C95.0557 17.264 94.885 17.9253 94.885 18.672C94.885 19.4187 95.0557 20.0907 95.397 20.688C95.7384 21.2853 96.1864 21.7547 96.741 22.096C97.317 22.4373 97.9357 22.608 98.597 22.608Z" fill="#2E2E2E"/>
<path d="M110.31 18.832C110.31 17.4027 110.64 16.1227 111.302 14.992C111.984 13.8613 112.934 12.976 114.15 12.336C115.366 11.6747 116.763 11.344 118.342 11.344C119.942 11.344 121.328 11.6747 122.502 12.336C123.675 12.976 124.571 13.8613 125.19 14.992C125.83 16.1227 126.15 17.4027 126.15 18.832C126.15 20.2613 125.83 21.552 125.19 22.704C124.571 23.8347 123.675 24.7307 122.502 25.392C121.328 26.0533 119.92 26.384 118.278 26.384C116.742 26.384 115.366 26.0853 114.15 25.488C112.955 24.8907 112.016 24.0267 111.334 22.896C110.651 21.7653 110.31 20.4107 110.31 18.832ZM114.822 18.864C114.822 19.5893 114.971 20.2507 115.27 20.848C115.568 21.424 115.974 21.8827 116.486 22.224C116.998 22.5653 117.574 22.736 118.214 22.736C118.918 22.736 119.526 22.5653 120.038 22.224C120.55 21.8827 120.944 21.424 121.222 20.848C121.499 20.2507 121.638 19.5893 121.638 18.864C121.638 18.1173 121.499 17.456 121.222 16.88C120.944 16.304 120.55 15.8453 120.038 15.504C119.526 15.1627 118.918 14.992 118.214 14.992C117.574 14.992 116.998 15.1627 116.486 15.504C115.974 15.8453 115.568 16.304 115.27 16.88C114.971 17.456 114.822 18.1173 114.822 18.864Z" fill="#2E2E2E"/>
</svg>
