<svg width="140" height="32" viewBox="0 0 140 32" fill="none" xmlns="http://www.w3.org/2000/svg">
<path d="M7 4.696H23.064V9.176H11.64V14.2H21.752V18.68H11.64V23.768H23.512V28.248H7V4.696Z" fill="#2E2E2E"/>
<path d="M33.2725 28.632C31.9712 28.632 30.8085 28.3333 29.7845 27.736C28.7605 27.1173 27.9498 26.232 27.3525 25.08C26.7765 23.928 26.4885 22.5627 26.4885 20.984C26.4885 19.4053 26.8085 18.0613 27.4485 16.952C28.0885 15.8427 28.9632 15 30.0725 14.424C31.1818 13.848 32.4405 13.56 33.8485 13.56C34.7445 13.56 35.5978 13.6987 36.4085 13.976C37.2405 14.2533 37.9338 14.68 38.4885 15.256V16.664V3H42.9365V28.248H38.4565V25.528L38.8085 26.488C38.0832 27.0853 37.2725 27.5973 36.3765 28.024C35.4805 28.4293 34.4458 28.632 33.2725 28.632ZM34.7445 24.856C35.3418 24.856 35.8645 24.7813 36.3125 24.632C36.7818 24.4613 37.1872 24.2267 37.5285 23.928C37.8912 23.608 38.2005 23.2133 38.4565 22.744V19.32C38.2858 18.8507 38.0192 18.456 37.6565 18.136C37.3152 17.7947 36.8885 17.5387 36.3765 17.368C35.8858 17.176 35.3418 17.08 34.7445 17.08C34.0832 17.08 33.4645 17.2507 32.8885 17.592C32.3338 17.912 31.8858 18.36 31.5445 18.936C31.2032 19.512 31.0325 20.1733 31.0325 20.92C31.0325 21.6667 31.2032 22.3387 31.5445 22.936C31.8858 23.5333 32.3338 24.0027 32.8885 24.344C33.4645 24.6853 34.0832 24.856 34.7445 24.856Z" fill="#2E2E2E"/>
<path d="M52.0573 28.92C50.7986 28.92 49.7426 28.536 48.8893 27.768C48.0359 26.9787 47.5879 25.9653 47.5452 24.728V14.264H52.0252V23.064C52.0679 23.6827 52.2279 24.184 52.5052 24.568C52.7826 24.9307 53.2519 25.112 53.9132 25.112C54.5746 25.112 55.1399 24.888 55.6092 24.44C56.0999 23.992 56.4733 23.384 56.7293 22.616C57.0066 21.8267 57.1452 20.9413 57.1452 19.96V14.264H61.6253V28.248H57.5612L57.2093 25.688L57.2733 25.976C56.9533 26.552 56.5479 27.064 56.0573 27.512C55.5666 27.96 54.9799 28.3013 54.2972 28.536C53.6359 28.792 52.8893 28.92 52.0573 28.92Z" fill="#2E2E2E"/>
<path d="M72.1208 28.632C70.8194 28.632 69.6354 28.376 68.5687 27.864C67.5234 27.3307 66.6914 26.52 66.0728 25.432C65.4541 24.344 65.1447 22.9573 65.1447 21.272C65.1447 19.6933 65.4648 18.328 66.1048 17.176C66.7448 16.024 67.5874 15.1387 68.6328 14.52C69.6781 13.88 70.7874 13.56 71.9607 13.56C73.3474 13.56 74.3927 13.7947 75.0967 14.264C75.8221 14.712 76.4194 15.2133 76.8887 15.768L76.6967 16.312L77.1127 14.264H81.2728V28.248H76.7927V25.208L77.1448 26.168C77.1021 26.168 76.9741 26.296 76.7607 26.552C76.5474 26.7867 76.2274 27.0747 75.8008 27.416C75.3954 27.736 74.8834 28.0133 74.2647 28.248C73.6674 28.504 72.9528 28.632 72.1208 28.632ZM73.4007 24.984C73.9341 24.984 74.4141 24.9093 74.8408 24.76C75.2674 24.5893 75.6407 24.3547 75.9607 24.056C76.2807 23.736 76.5581 23.3413 76.7927 22.872V19.448C76.6221 18.9787 76.3661 18.584 76.0247 18.264C75.6834 17.9227 75.2781 17.6667 74.8087 17.496C74.3394 17.304 73.8168 17.208 73.2408 17.208C72.6008 17.208 72.0034 17.3787 71.4488 17.72C70.9154 18.04 70.4888 18.488 70.1688 19.064C69.8488 19.64 69.6888 20.3013 69.6888 21.048C69.6888 21.7947 69.8594 22.4667 70.2007 23.064C70.5421 23.6613 70.9901 24.1307 71.5447 24.472C72.1207 24.8133 72.7394 24.984 73.4007 24.984Z" fill="#2E2E2E"/>
<path d="M89.921 14.264L90.337 18.104L90.241 17.528C90.6463 16.696 91.201 15.992 91.905 15.416C92.609 14.8187 93.3023 14.36 93.985 14.04C94.689 13.72 95.2223 13.56 95.585 13.56L95.361 18.04C94.3157 17.912 93.4197 18.0827 92.673 18.552C91.9263 19.0213 91.3503 19.64 90.945 20.408C90.5397 21.176 90.337 21.9653 90.337 22.776V28.248H85.889V14.264H89.921Z" fill="#2E2E2E"/>
<path d="M104.085 28.632C102.784 28.632 101.621 28.3333 100.597 27.736C99.573 27.1173 98.7623 26.232 98.165 25.08C97.589 23.928 97.301 22.5627 97.301 20.984C97.301 19.4053 97.621 18.0613 98.261 16.952C98.901 15.8427 99.7757 15 100.885 14.424C101.994 13.848 103.253 13.56 104.661 13.56C105.557 13.56 106.41 13.6987 107.221 13.976C108.053 14.2533 108.746 14.68 109.301 15.256V16.664V3H113.749V28.248H109.269V25.528L109.621 26.488C108.896 27.0853 108.085 27.5973 107.189 28.024C106.293 28.4293 105.258 28.632 104.085 28.632ZM105.557 24.856C106.154 24.856 106.677 24.7813 107.125 24.632C107.594 24.4613 108 24.2267 108.341 23.928C108.704 23.608 109.013 23.2133 109.269 22.744V19.32C109.098 18.8507 108.832 18.456 108.469 18.136C108.128 17.7947 107.701 17.5387 107.189 17.368C106.698 17.176 106.154 17.08 105.557 17.08C104.896 17.08 104.277 17.2507 103.701 17.592C103.146 17.912 102.698 18.36 102.357 18.936C102.016 19.512 101.845 20.1733 101.845 20.92C101.845 21.6667 102.016 22.3387 102.357 22.936C102.698 23.5333 103.146 24.0027 103.701 24.344C104.277 24.6853 104.896 24.856 105.557 24.856Z" fill="#2E2E2E"/>
<path d="M117.27 21.08C117.27 19.6507 117.6 18.3707 118.262 17.24C118.944 16.1093 119.894 15.224 121.11 14.584C122.326 13.9227 123.723 13.592 125.302 13.592C126.902 13.592 128.288 13.9227 129.462 14.584C130.635 15.224 131.531 16.1093 132.15 17.24C132.79 18.3707 133.11 19.6507 133.11 21.08C133.11 22.5093 132.79 23.8 132.15 24.952C131.531 26.0827 130.635 26.9787 129.462 27.64C128.288 28.3013 126.88 28.632 125.238 28.632C123.702 28.632 122.326 28.3333 121.11 27.736C119.915 27.1387 118.976 26.2747 118.294 25.144C117.611 24.0133 117.27 22.6587 117.27 21.08ZM121.782 21.112C121.782 21.8373 121.931 22.4987 122.23 23.096C122.528 23.672 122.934 24.1307 123.446 24.472C123.958 24.8133 124.534 24.984 125.174 24.984C125.878 24.984 126.486 24.8133 126.998 24.472C127.51 24.1307 127.904 23.672 128.182 23.096C128.459 22.4987 128.598 21.8373 128.598 21.112C128.598 20.3653 128.459 19.704 128.182 19.128C127.904 18.552 127.51 18.0933 126.998 17.752C126.486 17.4107 125.878 17.24 125.174 17.24C124.534 17.24 123.958 17.4107 123.446 17.752C122.934 18.0933 122.528 18.552 122.23 19.128C121.931 19.704 121.782 20.3653 121.782 21.112Z" fill="#2E2E2E"/>
</svg>
