<svg width="20" height="20" viewBox="0 0 20 20" fill="none" xmlns="http://www.w3.org/2000/svg">
<path d="M1.67009 18.3333L2.79676 14.1933C2.05437 12.9207 1.66434 11.4733 1.66676 10C1.66676 5.3975 5.39759 1.66667 10.0001 1.66667C14.6026 1.66667 18.3334 5.3975 18.3334 10C18.3334 14.6025 14.6026 18.3333 10.0001 18.3333C8.52741 18.3357 7.08064 17.946 5.80843 17.2042L1.67009 18.3333ZM6.99259 6.09C6.88498 6.09668 6.77982 6.12503 6.68343 6.17333C6.59303 6.22453 6.51051 6.28852 6.43843 6.36333C6.33843 6.4575 6.28176 6.53917 6.22093 6.61833C5.91294 7.01916 5.74727 7.51118 5.75009 8.01667C5.75176 8.425 5.85843 8.8225 6.02509 9.19417C6.36593 9.94583 6.92676 10.7417 7.66759 11.4792C7.84593 11.6567 8.02009 11.835 8.20759 12.0008C9.12708 12.8104 10.2228 13.3942 11.4076 13.7058L11.8818 13.7783C12.0359 13.7867 12.1901 13.775 12.3451 13.7675C12.5878 13.755 12.8248 13.6893 13.0393 13.575C13.1776 13.5017 13.2426 13.465 13.3584 13.3917C13.3584 13.3917 13.3943 13.3683 13.4626 13.3167C13.5751 13.2333 13.6443 13.1742 13.7376 13.0767C13.8068 13.005 13.8668 12.9208 13.9126 12.825C13.9776 12.6892 14.0426 12.43 14.0693 12.2142C14.0893 12.0492 14.0834 11.9592 14.0809 11.9033C14.0776 11.8142 14.0034 11.7217 13.9226 11.6825L13.4376 11.465C13.4376 11.465 12.7126 11.1492 12.2701 10.9475C12.2234 10.9272 12.1734 10.9156 12.1226 10.9133C12.0656 10.9075 12.008 10.9139 11.9536 10.9321C11.8993 10.9504 11.8495 10.9801 11.8076 11.0192V11.0175C11.8034 11.0175 11.7476 11.065 11.1451 11.795C11.1105 11.8415 11.0629 11.8766 11.0083 11.8959C10.9536 11.9152 10.8945 11.9178 10.8384 11.9033C10.7841 11.8888 10.7309 11.8704 10.6793 11.8483C10.5759 11.805 10.5401 11.7883 10.4693 11.7575L10.4651 11.7558C9.98835 11.5477 9.54695 11.2665 9.15676 10.9225C9.05176 10.8308 8.95426 10.7308 8.85426 10.6342C8.52641 10.3202 8.24069 9.96501 8.00426 9.5775L7.95509 9.49833C7.91978 9.44514 7.89123 9.38775 7.87009 9.3275C7.83843 9.205 7.92093 9.10667 7.92093 9.10667C7.92093 9.10667 8.12343 8.885 8.21759 8.765C8.296 8.66527 8.36915 8.56152 8.43676 8.45417C8.53509 8.29584 8.56593 8.13333 8.51426 8.0075C8.28093 7.4375 8.03926 6.87 7.79093 6.30667C7.74176 6.195 7.59593 6.115 7.46343 6.09917C7.41843 6.09417 7.37343 6.08917 7.32843 6.08583C7.21651 6.08027 7.10437 6.08222 6.99259 6.09Z" fill="#2E2E2E"/>
</svg>
