<svg width="127" height="27" fill="none" xmlns="http://www.w3.org/2000/svg"><path d="M.04 2.448h16.064v4.48H4.68v5.024h10.112v4.48H4.68v5.088h11.872V26H.04V2.448ZM26.313 26.384c-1.302 0-2.464-.299-3.488-.896-1.024-.619-1.835-1.504-2.433-2.656-.575-1.152-.863-2.517-.863-4.096 0-1.579.32-2.923.96-4.032a6.369 6.369 0 0 1 2.623-2.528c1.11-.576 2.369-.864 3.777-.864.896 0 1.749.139 2.56.416.831.277 1.525.704 2.08 1.28v1.408V.752h4.448V26h-4.48v-2.72l.352.96a11.758 11.758 0 0 1-2.433 1.536c-.896.405-1.93.608-3.104.608Zm1.472-3.776c.597 0 1.12-.075 1.567-.224.47-.17.875-.405 1.216-.704.363-.32.672-.715.928-1.184v-3.424a2.849 2.849 0 0 0-.8-1.184 3.214 3.214 0 0 0-1.28-.768 4.443 4.443 0 0 0-1.631-.288c-.662 0-1.28.17-1.857.512a3.691 3.691 0 0 0-1.344 1.344c-.34.576-.511 1.237-.511 1.984 0 .747.17 1.419.511 2.016.342.597.79 1.067 1.345 1.408a3.58 3.58 0 0 0 1.856.512ZM45.097 26.672c-1.258 0-2.314-.384-3.168-1.152-.853-.79-1.301-1.803-1.344-3.04V12.016h4.48v8.8c.043.619.203 1.12.48 1.504.278.363.747.544 1.408.544.662 0 1.227-.224 1.696-.672.491-.448.864-1.056 1.12-1.824.278-.79.416-1.675.416-2.656v-5.696h4.48V26h-4.064l-.352-2.56.064.288a6.038 6.038 0 0 1-1.216 1.536 4.97 4.97 0 0 1-1.76 1.024c-.661.256-1.408.384-2.24.384ZM65.16 26.384c-1.3 0-2.484-.256-3.551-.768-1.046-.533-1.878-1.344-2.496-2.432-.619-1.088-.928-2.475-.928-4.16 0-1.579.32-2.944.96-4.096.64-1.152 1.482-2.037 2.528-2.656 1.045-.64 2.154-.96 3.328-.96 1.386 0 2.432.235 3.136.704.725.448 1.323.95 1.792 1.504l-.192.544.416-2.048h4.16V26h-4.48v-3.04l.352.96c-.043 0-.17.128-.384.384-.213.235-.534.523-.96.864-.405.32-.917.597-1.536.832-.598.256-1.312.384-2.144.384Zm1.28-3.648c.534 0 1.014-.075 1.44-.224.428-.17.8-.405 1.12-.704.32-.32.598-.715.833-1.184V17.2a3 3 0 0 0-.768-1.184 3.283 3.283 0 0 0-1.216-.768 4.105 4.105 0 0 0-1.568-.288c-.64 0-1.238.17-1.792.512a3.53 3.53 0 0 0-1.28 1.344c-.32.576-.48 1.237-.48 1.984 0 .747.17 1.419.512 2.016.341.597.79 1.067 1.344 1.408a3.58 3.58 0 0 0 1.856.512ZM82.961 12.016l.416 3.84-.096-.576a6.206 6.206 0 0 1 1.664-2.112c.704-.597 1.397-1.056 2.08-1.376.704-.32 1.237-.48 1.6-.48l-.224 4.48c-1.045-.128-1.941.043-2.688.512a4.814 4.814 0 0 0-1.728 1.856 5.016 5.016 0 0 0-.608 2.368V26h-4.448V12.016h4.032ZM97.125 26.384c-1.301 0-2.464-.299-3.488-.896-1.024-.619-1.835-1.504-2.432-2.656-.576-1.152-.864-2.517-.864-4.096 0-1.579.32-2.923.96-4.032a6.369 6.369 0 0 1 2.624-2.528c1.11-.576 2.368-.864 3.776-.864.896 0 1.75.139 2.56.416.832.277 1.525.704 2.08 1.28v1.408V.752h4.448V26h-4.48v-2.72l.352.96a11.75 11.75 0 0 1-2.432 1.536c-.896.405-1.93.608-3.104.608Zm1.472-3.776c.597 0 1.12-.075 1.568-.224.469-.17.875-.405 1.216-.704.363-.32.672-.715.928-1.184v-3.424a2.85 2.85 0 0 0-.8-1.184 3.212 3.212 0 0 0-1.28-.768 4.443 4.443 0 0 0-1.632-.288c-.661 0-1.28.17-1.856.512a3.691 3.691 0 0 0-1.344 1.344c-.341.576-.512 1.237-.512 1.984 0 .747.17 1.419.512 2.016.341.597.79 1.067 1.344 1.408a3.58 3.58 0 0 0 1.856.512ZM110.31 18.832c0-1.43.33-2.71.992-3.84.682-1.13 1.632-2.016 2.848-2.656 1.216-.661 2.613-.992 4.192-.992 1.6 0 2.986.33 4.16.992 1.173.64 2.069 1.525 2.688 2.656.64 1.13.96 2.41.96 3.84 0 1.43-.32 2.72-.96 3.872-.619 1.13-1.515 2.027-2.688 2.688-1.174.661-2.582.992-4.224.992-1.536 0-2.912-.299-4.128-.896a6.738 6.738 0 0 1-2.816-2.592c-.683-1.13-1.024-2.485-1.024-4.064Zm4.512.032c0 .725.149 1.387.448 1.984a3.618 3.618 0 0 0 1.216 1.376 3.046 3.046 0 0 0 1.728.512c.704 0 1.312-.17 1.824-.512.512-.341.906-.8 1.184-1.376a4.66 4.66 0 0 0 .416-1.984c0-.747-.139-1.408-.416-1.984a3.386 3.386 0 0 0-1.184-1.376c-.512-.341-1.12-.512-1.824-.512-.64 0-1.216.17-1.728.512-.512.341-.918.8-1.216 1.376-.299.576-.448 1.237-.448 1.984Z" fill="#2E2E2E"/></svg>