<svg width="20" height="20" fill="none" xmlns="http://www.w3.org/2000/svg"><path d="m1.67 18.333 1.127-4.14A8.333 8.333 0 1 1 18.334 10a8.333 8.333 0 0 1-12.526 7.204l-4.138 1.13ZM6.993 6.09a.8.8 0 0 0-.31.083c-.09.052-.172.116-.245.19-.1.094-.156.176-.217.255-.308.401-.474.893-.47 1.399 0 .408.107.806.274 1.177.34.752.902 1.548 1.643 2.285.178.178.352.356.54.522a7.872 7.872 0 0 0 3.2 1.705l.474.072c.154.009.308-.003.463-.01.243-.013.48-.079.694-.193.139-.073.204-.11.32-.183 0 0 .035-.024.104-.075.112-.084.181-.143.275-.24a.956.956 0 0 0 .175-.252c.065-.136.13-.395.156-.61.02-.166.014-.256.012-.312-.003-.089-.078-.181-.158-.22l-.485-.218s-.725-.316-1.168-.518a.417.417 0 0 0-.147-.034.404.404 0 0 0-.315.106v-.002c-.005 0-.06.048-.663.778a.292.292 0 0 1-.307.108 1.173 1.173 0 0 1-.159-.055c-.103-.043-.139-.06-.21-.09l-.004-.002a5.008 5.008 0 0 1-1.308-.834c-.105-.091-.203-.191-.303-.288a5.248 5.248 0 0 1-.85-1.056l-.049-.08a.77.77 0 0 1-.085-.17c-.032-.123.05-.221.05-.221s.203-.222.298-.342c.078-.1.151-.203.219-.31.098-.16.129-.322.077-.447a69.376 69.376 0 0 0-.723-1.701c-.05-.112-.195-.192-.328-.208-.045-.005-.09-.01-.135-.013a2.821 2.821 0 0 0-.335.004Z" fill="#2E2E2E"/></svg>